<svg width="582" height="93" viewBox="0 0 582 93" fill="none" xmlns="http://www.w3.org/2000/svg">
<path d="M80.1906 92.4461V72.4645C78.9155 72.3759 77.6874 71.5813 77.2576 70.0816L61.056 13.5601C58.755 5.53292 51.4148 0.00110664 43.0643 0.00109863C34.8713 0.00109078 27.6306 5.32981 25.1945 13.1522L0.500122 92.4461H19.3853L39.7046 22.3563C40.6267 19.1756 45.1354 19.1824 46.048 22.3658L62.2495 78.8872C64.5459 86.8981 71.8611 92.4238 80.1906 92.4461Z" fill="#1AADF0" style="fill:#1AADF0;fill:color(display-p3 0.1020 0.6784 0.9412);fill-opacity:1;"/>
<path d="M80.1905 92.4457V72.4641C81.7239 72.4641 83.1132 71.7729 83.6009 70.0906L99.6186 14.8383C102.167 6.0487 110.217 0.00102446 119.369 0.00158695C119.601 0.00160126 119.833 0.00552604 120.065 0.0133069V19.6738C118.477 19.2323 116.589 19.9628 115.995 21.8684L98.1109 79.2946C95.6748 87.117 88.3835 92.4457 80.1905 92.4457Z" fill="#28F16B" style="fill:#28F16B;fill:color(display-p3 0.1569 0.9451 0.4196);fill-opacity:1;"/>
<path d="M120.065 0.00646973V19.6669C121.059 19.9434 121.935 20.6793 122.302 21.8739L139.897 79.1581C142.321 87.0525 149.613 92.4409 157.871 92.4409C158.086 92.4409 158.301 92.4372 158.514 92.43V72.4456C157.035 72.6128 155.453 71.8224 154.952 70.0762L139.133 14.8909C136.67 6.29624 128.948 0.305409 120.065 0.00646973Z" fill="#FFBC2B" style="fill:#FFBC2B;fill:color(display-p3 1.0000 0.7373 0.1686);fill-opacity:1;"/>
<path d="M158.514 72.4564V92.4409C166.479 92.1703 173.441 86.8929 175.824 79.2393L200.5 0.0065918H181.615L161.295 70.0966C160.879 71.5325 159.732 72.3188 158.514 72.4564Z" fill="#F52E60" style="fill:#F52E60;fill:color(display-p3 0.9608 0.1804 0.3765);fill-opacity:1;"/>
<g clip-path="url(#clip0_351_92)">
<path d="M254.444 24.9236H262.956V69.7236H247.98L233.068 30.6196V69.7236H224.492V24.9236H239.532L254.444 64.0276V24.9236ZM269.024 52.9556C269.024 47.1529 270.581 42.7796 273.696 39.8356C276.853 36.8916 281.056 35.4196 286.304 35.4196C297.227 35.4196 302.688 41.7769 302.688 54.4916V55.4516H277.664C277.963 58.4383 278.901 60.6783 280.48 62.1716C282.101 63.6649 284.192 64.4116 286.752 64.4116C290.251 64.4116 292.683 62.9609 294.048 60.0596L302.24 60.5716C301.387 63.7289 299.616 66.1823 296.928 67.9316C294.24 69.6383 290.848 70.4916 286.752 70.4916C281.291 70.4916 276.96 69.0409 273.76 66.1396C270.603 63.1956 269.024 58.8009 269.024 52.9556ZM277.664 50.0116H294.24C294.069 47.3236 293.28 45.2329 291.872 43.7396C290.507 42.2463 288.651 41.4996 286.304 41.4996C283.957 41.4996 282.016 42.2249 280.48 43.6756C278.987 45.0836 278.048 47.1956 277.664 50.0116ZM329.996 36.1876H338.572V69.7236H330.572V63.4516C328.31 68.1449 324.406 70.4916 318.859 70.4916C315.105 70.4916 312.225 69.3396 310.219 67.0356C308.257 64.7316 307.275 61.4463 307.275 57.1796V36.1876H315.851V54.6196C315.851 60.5076 317.985 63.4516 322.251 63.4516C324.769 63.4516 326.689 62.5129 328.012 60.6356C329.334 58.7156 329.996 56.2409 329.996 53.2116V36.1876ZM362.983 35.4836C364.305 35.4836 365.585 35.6543 366.823 35.9956V43.4836C364.647 43.1849 362.961 43.0356 361.767 43.0356C359.036 43.0356 357.009 43.8676 355.687 45.5316C354.407 47.1956 353.767 49.9049 353.767 53.6596V69.7236H345.127L345.191 36.1876H353.127V42.6516C355.089 37.8729 358.375 35.4836 362.983 35.4836ZM367.937 60.5716C367.937 54.3849 372.63 50.8436 382.017 49.9476L390.785 49.0516V47.3876C390.785 45.5956 390.252 44.1663 389.185 43.0996C388.118 42.0329 386.497 41.4996 384.321 41.4996C382.401 41.4996 380.822 41.9263 379.585 42.7796C378.39 43.6329 377.729 44.8916 377.601 46.5556H369.793C369.921 42.6729 371.329 39.8569 374.017 38.1076C376.705 36.3156 380.14 35.4196 384.321 35.4196C389.142 35.4196 392.854 36.5716 395.457 38.8756C398.06 41.1796 399.361 44.6143 399.361 49.1796V69.7236H391.361V63.6436C389.014 68.2089 384.94 70.4916 379.137 70.4916C375.51 70.4916 372.737 69.5743 370.817 67.7396C368.897 65.9049 367.937 63.5156 367.937 60.5716ZM376.449 60.1236C376.449 61.4463 376.897 62.5129 377.793 63.3236C378.732 64.1343 380.097 64.5396 381.889 64.5396C384.534 64.5396 386.668 63.7076 388.289 62.0436C389.953 60.3369 390.785 58.2463 390.785 55.7716V54.2996L383.105 55.0676C378.668 55.4943 376.449 57.1796 376.449 60.1236ZM405.629 22.6196H414.205V69.7236H405.629V22.6196ZM449.907 24.9236H459.059L445.107 69.7236H431.667L417.907 24.9236H427.251L438.515 64.2196L449.907 24.9236ZM462.514 65.8196C459.442 62.6623 457.906 58.3743 457.906 52.9556C457.906 47.5369 459.442 43.2703 462.514 40.1556C465.629 36.9983 469.832 35.4196 475.122 35.4196C480.413 35.4196 484.594 36.9983 487.666 40.1556C490.781 43.2703 492.338 47.5369 492.338 52.9556C492.338 58.3743 490.781 62.6623 487.666 65.8196C484.594 68.9343 480.413 70.4916 475.122 70.4916C469.832 70.4916 465.629 68.9343 462.514 65.8196ZM468.786 45.0836C467.208 47.0889 466.418 49.7129 466.418 52.9556C466.418 56.1983 467.208 58.8223 468.786 60.8276C470.365 62.8329 472.477 63.8356 475.122 63.8356C477.81 63.8356 479.944 62.8329 481.522 60.8276C483.101 58.8223 483.89 56.1983 483.89 52.9556C483.89 49.7129 483.101 47.0889 481.522 45.0836C479.944 43.0783 477.81 42.0756 475.122 42.0756C472.477 42.0756 470.365 43.0783 468.786 45.0836ZM497.288 31.4516V23.1956H506.312V31.4516H497.288ZM497.544 69.7236V36.1876H506.056V69.7236H497.544ZM511.159 52.9556C511.159 47.3663 512.652 43.0569 515.639 40.0276C518.626 36.9556 522.7 35.4196 527.863 35.4196C532.13 35.4196 535.692 36.5076 538.551 38.6836C541.452 40.8596 543.138 43.9103 543.607 47.8356L535.415 48.5396C534.988 46.4489 534.092 44.8489 532.727 43.7396C531.404 42.6303 529.783 42.0756 527.863 42.0756C525.346 42.0756 523.34 43.0356 521.847 44.9556C520.396 46.8756 519.671 49.5423 519.671 52.9556C519.671 56.3689 520.418 59.0356 521.911 60.9556C523.404 62.8756 525.452 63.8356 528.055 63.8356C530.146 63.8356 531.852 63.2596 533.175 62.1076C534.498 60.9129 535.372 59.2489 535.799 57.1156L544.055 57.6276C543.586 61.7236 541.9 64.9023 538.999 67.1636C536.098 69.3823 532.45 70.4916 528.055 70.4916C522.807 70.4916 518.668 68.9769 515.639 65.9476C512.652 62.9183 511.159 58.5876 511.159 52.9556ZM547.004 52.9556C547.004 47.1529 548.561 42.7796 551.676 39.8356C554.833 36.8916 559.036 35.4196 564.284 35.4196C575.207 35.4196 580.668 41.7769 580.668 54.4916V55.4516H555.644C555.943 58.4383 556.881 60.6783 558.46 62.1716C560.081 63.6649 562.172 64.4116 564.732 64.4116C568.231 64.4116 570.663 62.9609 572.028 60.0596L580.22 60.5716C579.367 63.7289 577.596 66.1823 574.908 67.9316C572.22 69.6383 568.828 70.4916 564.732 70.4916C559.271 70.4916 554.94 69.0409 551.74 66.1396C548.583 63.1956 547.004 58.8009 547.004 52.9556ZM555.644 50.0116H572.22C572.049 47.3236 571.26 45.2329 569.852 43.7396C568.487 42.2463 566.631 41.4996 564.284 41.4996C561.937 41.4996 559.996 42.2249 558.46 43.6756C556.967 45.0836 556.028 47.1956 555.644 50.0116Z" fill="#1E1E1E" style="fill:#1E1E1E;fill:color(display-p3 0.1176 0.1176 0.1176);fill-opacity:1;"/>
</g>
<defs>
<clipPath id="clip0_351_92">
<rect width="357" height="49" fill="white" style="fill:white;fill-opacity:1;" transform="translate(224.5 21.7236)"/>
</clipPath>
</defs>
</svg>
