<svg width="45" height="21" viewBox="0 0 45 21" fill="none" xmlns="http://www.w3.org/2000/svg">
<path d="M18.0343 20.6016V16.154C17.7505 16.1343 17.4771 15.9574 17.3815 15.6236L13.7752 3.0426C13.263 1.25585 11.6292 0.0245379 9.77046 0.0245361C7.94681 0.0245344 6.33513 1.21064 5.79288 2.95181L0.296223 20.6016H4.49983L9.02263 5.00051C9.22788 4.29253 10.2315 4.29404 10.4346 5.00263L14.0409 17.5836C14.552 19.3667 16.1803 20.5967 18.0343 20.6016Z" fill="#1AADF0"/>
<path d="M18.0343 20.6015V16.1539C18.3756 16.1539 18.6849 16 18.7934 15.6256L22.3588 3.32712C22.9259 1.37067 24.7179 0.024533 26.7549 0.0246582C26.8067 0.0246614 26.8583 0.025535 26.9098 0.0272669V4.40343C26.5564 4.30516 26.136 4.46776 26.0039 4.89194L22.0232 17.6743C21.4809 19.4154 19.858 20.6015 18.0343 20.6015Z" fill="#28F16B"/>
<path d="M26.9098 0.0257568V4.40192C27.1311 4.46346 27.3261 4.62726 27.4078 4.89317L31.3241 17.6439C31.8638 19.4011 33.4869 20.6005 35.3251 20.6005C35.3729 20.6005 35.4206 20.5997 35.4682 20.598V16.1498C35.1389 16.187 34.7867 16.0111 34.6752 15.6224L31.1542 3.33884C30.6059 1.42578 28.887 0.0922968 26.9098 0.0257568Z" fill="#FFBC2B"/>
<path d="M35.4682 16.1522V20.6004C37.2411 20.5402 38.7907 19.3655 39.3212 17.6619L44.8136 0.0257568H40.61L36.0872 15.6269C35.9945 15.9465 35.7392 16.1215 35.4682 16.1522Z" fill="#F52E60"/>
</svg>
