<svg xmlns="http://www.w3.org/2000/svg" xmlns:xlink="http://www.w3.org/1999/xlink" width="400" zoomAndPan="magnify" viewBox="0 0 300 60" height="80" preserveAspectRatio="xMidYMid meet" version="1.0"><defs><filter x="0%" y="0%" width="100%" height="100%" id="f97bf58c03"><feColorMatrix values="0 0 0 0 1 0 0 0 0 1 0 0 0 0 1 0 0 0 1 0" color-interpolation-filters="sRGB"/></filter><g/><clipPath id="4a556ca27c"><path d="M 0.949219 0 L 293 0 L 293 60 L 0.949219 60 Z M 0.949219 0 " clip-rule="nonzero"/></clipPath><clipPath id="9bf07cd9ad"><path d="M 0.949219 0 L 293 0 L 293 60 L 0.949219 60 Z M 0.949219 0 " clip-rule="nonzero"/></clipPath><clipPath id="47270c1614"><path d="M 0.953125 0 L 293 0 L 293 60 L 0.953125 60 Z M 0.953125 0 " clip-rule="nonzero"/></clipPath><linearGradient x1="-105.264" gradientTransform="matrix(0.728624, 0, 0, 0.730183, 77.65024, 3.713784)" y1="36" x2="295.556851" gradientUnits="userSpaceOnUse" y2="36" id="6b71503964"><stop stop-opacity="1" stop-color="rgb(23.139954%, 50.979614%, 96.469116%)" offset="0"/><stop stop-opacity="1" stop-color="rgb(23.139954%, 50.979614%, 96.469116%)" offset="0.25"/><stop stop-opacity="1" stop-color="rgb(23.28949%, 50.927734%, 96.31958%)" offset="0.265625"/><stop stop-opacity="1" stop-color="rgb(23.838806%, 50.738525%, 95.776367%)" offset="0.269531"/><stop stop-opacity="1" stop-color="rgb(24.237061%, 50.601196%, 95.384216%)" offset="0.273438"/><stop stop-opacity="1" stop-color="rgb(24.635315%, 50.463867%, 94.99054%)" offset="0.277344"/><stop stop-opacity="1" stop-color="rgb(25.033569%, 50.326538%, 94.596863%)" offset="0.28125"/><stop stop-opacity="1" stop-color="rgb(25.430298%, 50.189209%, 94.203186%)" offset="0.285156"/><stop stop-opacity="1" stop-color="rgb(25.828552%, 50.053406%, 93.809509%)" offset="0.289062"/><stop stop-opacity="1" stop-color="rgb(26.226807%, 49.916077%, 93.415833%)" offset="0.292969"/><stop stop-opacity="1" stop-color="rgb(26.625061%, 49.778748%, 93.022156%)" offset="0.296875"/><stop stop-opacity="1" stop-color="rgb(27.023315%, 49.641418%, 92.628479%)" offset="0.300781"/><stop stop-opacity="1" stop-color="rgb(27.42157%, 49.504089%, 92.234802%)" offset="0.304688"/><stop stop-opacity="1" stop-color="rgb(27.818298%, 49.36676%, 91.841125%)" offset="0.308594"/><stop stop-opacity="1" stop-color="rgb(28.216553%, 49.230957%, 91.447449%)" offset="0.3125"/><stop stop-opacity="1" stop-color="rgb(28.614807%, 49.093628%, 91.053772%)" offset="0.316406"/><stop stop-opacity="1" stop-color="rgb(29.013062%, 48.956299%, 90.661621%)" offset="0.320312"/><stop stop-opacity="1" stop-color="rgb(29.411316%, 48.81897%, 90.267944%)" offset="0.324219"/><stop stop-opacity="1" stop-color="rgb(29.80957%, 48.681641%, 89.874268%)" offset="0.328125"/><stop stop-opacity="1" stop-color="rgb(30.206299%, 48.544312%, 89.480591%)" offset="0.332031"/><stop stop-opacity="1" stop-color="rgb(30.604553%, 48.408508%, 89.086914%)" offset="0.335938"/><stop stop-opacity="1" stop-color="rgb(31.002808%, 48.271179%, 88.693237%)" offset="0.339844"/><stop stop-opacity="1" stop-color="rgb(31.401062%, 48.13385%, 88.299561%)" offset="0.34375"/><stop stop-opacity="1" stop-color="rgb(31.799316%, 47.996521%, 87.905884%)" offset="0.347656"/><stop stop-opacity="1" stop-color="rgb(32.197571%, 47.859192%, 87.512207%)" offset="0.351563"/><stop stop-opacity="1" stop-color="rgb(32.594299%, 47.721863%, 87.11853%)" offset="0.355469"/><stop stop-opacity="1" stop-color="rgb(32.992554%, 47.58606%, 86.726379%)" offset="0.359375"/><stop stop-opacity="1" stop-color="rgb(33.390808%, 47.44873%, 86.332703%)" offset="0.363281"/><stop stop-opacity="1" stop-color="rgb(33.789062%, 47.311401%, 85.939026%)" offset="0.367188"/><stop stop-opacity="1" stop-color="rgb(34.187317%, 47.174072%, 85.545349%)" offset="0.371094"/><stop stop-opacity="1" stop-color="rgb(34.585571%, 47.038269%, 85.151672%)" offset="0.375"/><stop stop-opacity="1" stop-color="rgb(34.9823%, 46.90094%, 84.757996%)" offset="0.378906"/><stop stop-opacity="1" stop-color="rgb(35.380554%, 46.763611%, 84.364319%)" offset="0.382813"/><stop stop-opacity="1" stop-color="rgb(35.778809%, 46.626282%, 83.970642%)" offset="0.386719"/><stop stop-opacity="1" stop-color="rgb(36.177063%, 46.488953%, 83.576965%)" offset="0.390625"/><stop stop-opacity="1" stop-color="rgb(36.575317%, 46.351624%, 83.183289%)" offset="0.394531"/><stop stop-opacity="1" stop-color="rgb(36.973572%, 46.21582%, 82.791138%)" offset="0.398438"/><stop stop-opacity="1" stop-color="rgb(37.3703%, 46.078491%, 82.397461%)" offset="0.402344"/><stop stop-opacity="1" stop-color="rgb(37.768555%, 45.941162%, 82.003784%)" offset="0.40625"/><stop stop-opacity="1" stop-color="rgb(38.166809%, 45.803833%, 81.610107%)" offset="0.410156"/><stop stop-opacity="1" stop-color="rgb(38.565063%, 45.666504%, 81.216431%)" offset="0.414063"/><stop stop-opacity="1" stop-color="rgb(38.963318%, 45.529175%, 80.822754%)" offset="0.417969"/><stop stop-opacity="1" stop-color="rgb(39.361572%, 45.393372%, 80.429077%)" offset="0.421875"/><stop stop-opacity="1" stop-color="rgb(39.758301%, 45.256042%, 80.0354%)" offset="0.425781"/><stop stop-opacity="1" stop-color="rgb(40.156555%, 45.118713%, 79.641724%)" offset="0.429688"/><stop stop-opacity="1" stop-color="rgb(40.55481%, 44.981384%, 79.248047%)" offset="0.433594"/><stop stop-opacity="1" stop-color="rgb(40.953064%, 44.844055%, 78.85437%)" offset="0.4375"/><stop stop-opacity="1" stop-color="rgb(41.349792%, 44.706726%, 78.460693%)" offset="0.441406"/><stop stop-opacity="1" stop-color="rgb(41.748047%, 44.570923%, 78.068542%)" offset="0.445312"/><stop stop-opacity="1" stop-color="rgb(42.146301%, 44.433594%, 77.674866%)" offset="0.449219"/><stop stop-opacity="1" stop-color="rgb(42.544556%, 44.296265%, 77.281189%)" offset="0.453125"/><stop stop-opacity="1" stop-color="rgb(42.94281%, 44.158936%, 76.887512%)" offset="0.457031"/><stop stop-opacity="1" stop-color="rgb(43.341064%, 44.021606%, 76.493835%)" offset="0.460938"/><stop stop-opacity="1" stop-color="rgb(43.737793%, 43.884277%, 76.100159%)" offset="0.464844"/><stop stop-opacity="1" stop-color="rgb(44.136047%, 43.748474%, 75.706482%)" offset="0.46875"/><stop stop-opacity="1" stop-color="rgb(44.534302%, 43.611145%, 75.312805%)" offset="0.472656"/><stop stop-opacity="1" stop-color="rgb(44.932556%, 43.473816%, 74.919128%)" offset="0.476562"/><stop stop-opacity="1" stop-color="rgb(45.330811%, 43.336487%, 74.525452%)" offset="0.480469"/><stop stop-opacity="1" stop-color="rgb(45.729065%, 43.199158%, 74.133301%)" offset="0.484375"/><stop stop-opacity="1" stop-color="rgb(46.125793%, 43.061829%, 73.739624%)" offset="0.488281"/><stop stop-opacity="1" stop-color="rgb(46.524048%, 42.926025%, 73.345947%)" offset="0.492188"/><stop stop-opacity="1" stop-color="rgb(46.922302%, 42.788696%, 72.952271%)" offset="0.496094"/><stop stop-opacity="1" stop-color="rgb(47.320557%, 42.651367%, 72.558594%)" offset="0.5"/><stop stop-opacity="1" stop-color="rgb(47.718811%, 42.514038%, 72.164917%)" offset="0.503906"/><stop stop-opacity="1" stop-color="rgb(48.117065%, 42.376709%, 71.77124%)" offset="0.507812"/><stop stop-opacity="1" stop-color="rgb(48.513794%, 42.23938%, 71.377563%)" offset="0.511719"/><stop stop-opacity="1" stop-color="rgb(48.912048%, 42.103577%, 70.983887%)" offset="0.515625"/><stop stop-opacity="1" stop-color="rgb(49.310303%, 41.966248%, 70.59021%)" offset="0.519531"/><stop stop-opacity="1" stop-color="rgb(49.708557%, 41.828918%, 70.196533%)" offset="0.523438"/><stop stop-opacity="1" stop-color="rgb(50.106812%, 41.691589%, 69.802856%)" offset="0.527344"/><stop stop-opacity="1" stop-color="rgb(50.505066%, 41.555786%, 69.410706%)" offset="0.53125"/><stop stop-opacity="1" stop-color="rgb(50.901794%, 41.418457%, 69.017029%)" offset="0.535156"/><stop stop-opacity="1" stop-color="rgb(51.300049%, 41.281128%, 68.623352%)" offset="0.539062"/><stop stop-opacity="1" stop-color="rgb(51.698303%, 41.143799%, 68.229675%)" offset="0.542969"/><stop stop-opacity="1" stop-color="rgb(52.096558%, 41.00647%, 67.835999%)" offset="0.546875"/><stop stop-opacity="1" stop-color="rgb(52.494812%, 40.869141%, 67.442322%)" offset="0.550781"/><stop stop-opacity="1" stop-color="rgb(52.893066%, 40.733337%, 67.048645%)" offset="0.554688"/><stop stop-opacity="1" stop-color="rgb(53.289795%, 40.596008%, 66.654968%)" offset="0.558594"/><stop stop-opacity="1" stop-color="rgb(53.688049%, 40.458679%, 66.261292%)" offset="0.5625"/><stop stop-opacity="1" stop-color="rgb(54.086304%, 40.32135%, 65.867615%)" offset="0.566406"/><stop stop-opacity="1" stop-color="rgb(54.484558%, 40.184021%, 65.475464%)" offset="0.570313"/><stop stop-opacity="1" stop-color="rgb(54.882812%, 40.046692%, 65.081787%)" offset="0.574219"/><stop stop-opacity="1" stop-color="rgb(55.281067%, 39.910889%, 64.68811%)" offset="0.578125"/><stop stop-opacity="1" stop-color="rgb(55.677795%, 39.77356%, 64.294434%)" offset="0.582031"/><stop stop-opacity="1" stop-color="rgb(56.07605%, 39.63623%, 63.900757%)" offset="0.585938"/><stop stop-opacity="1" stop-color="rgb(56.474304%, 39.498901%, 63.50708%)" offset="0.589844"/><stop stop-opacity="1" stop-color="rgb(56.872559%, 39.361572%, 63.113403%)" offset="0.59375"/><stop stop-opacity="1" stop-color="rgb(57.270813%, 39.224243%, 62.719727%)" offset="0.597656"/><stop stop-opacity="1" stop-color="rgb(57.669067%, 39.08844%, 62.32605%)" offset="0.601563"/><stop stop-opacity="1" stop-color="rgb(58.065796%, 38.951111%, 61.932373%)" offset="0.605469"/><stop stop-opacity="1" stop-color="rgb(58.46405%, 38.813782%, 61.538696%)" offset="0.609375"/><stop stop-opacity="1" stop-color="rgb(58.862305%, 38.676453%, 61.14502%)" offset="0.613281"/><stop stop-opacity="1" stop-color="rgb(59.260559%, 38.539124%, 60.752869%)" offset="0.617188"/><stop stop-opacity="1" stop-color="rgb(59.658813%, 38.401794%, 60.359192%)" offset="0.621094"/><stop stop-opacity="1" stop-color="rgb(60.057068%, 38.265991%, 59.965515%)" offset="0.625"/><stop stop-opacity="1" stop-color="rgb(60.453796%, 38.128662%, 59.571838%)" offset="0.628906"/><stop stop-opacity="1" stop-color="rgb(60.852051%, 37.991333%, 59.178162%)" offset="0.632813"/><stop stop-opacity="1" stop-color="rgb(61.250305%, 37.854004%, 58.784485%)" offset="0.636719"/><stop stop-opacity="1" stop-color="rgb(61.64856%, 37.716675%, 58.390808%)" offset="0.640625"/><stop stop-opacity="1" stop-color="rgb(62.046814%, 37.579346%, 57.997131%)" offset="0.644531"/><stop stop-opacity="1" stop-color="rgb(62.445068%, 37.443542%, 57.603455%)" offset="0.648438"/><stop stop-opacity="1" stop-color="rgb(62.841797%, 37.306213%, 57.209778%)" offset="0.652344"/><stop stop-opacity="1" stop-color="rgb(63.240051%, 37.168884%, 56.817627%)" offset="0.65625"/><stop stop-opacity="1" stop-color="rgb(63.638306%, 37.031555%, 56.42395%)" offset="0.660156"/><stop stop-opacity="1" stop-color="rgb(64.03656%, 36.894226%, 56.030273%)" offset="0.664063"/><stop stop-opacity="1" stop-color="rgb(64.433289%, 36.756897%, 55.636597%)" offset="0.667969"/><stop stop-opacity="1" stop-color="rgb(64.831543%, 36.621094%, 55.24292%)" offset="0.671875"/><stop stop-opacity="1" stop-color="rgb(65.229797%, 36.483765%, 54.849243%)" offset="0.675781"/><stop stop-opacity="1" stop-color="rgb(65.628052%, 36.346436%, 54.455566%)" offset="0.679688"/><stop stop-opacity="1" stop-color="rgb(66.026306%, 36.209106%, 54.06189%)" offset="0.683594"/><stop stop-opacity="1" stop-color="rgb(66.424561%, 36.073303%, 53.668213%)" offset="0.6875"/><stop stop-opacity="1" stop-color="rgb(66.821289%, 35.935974%, 53.274536%)" offset="0.691406"/><stop stop-opacity="1" stop-color="rgb(67.219543%, 35.798645%, 52.880859%)" offset="0.695313"/><stop stop-opacity="1" stop-color="rgb(67.617798%, 35.661316%, 52.487183%)" offset="0.699219"/><stop stop-opacity="1" stop-color="rgb(68.016052%, 35.523987%, 52.095032%)" offset="0.703125"/><stop stop-opacity="1" stop-color="rgb(68.414307%, 35.386658%, 51.701355%)" offset="0.707031"/><stop stop-opacity="1" stop-color="rgb(68.812561%, 35.250854%, 51.307678%)" offset="0.710938"/><stop stop-opacity="1" stop-color="rgb(69.20929%, 35.113525%, 50.914001%)" offset="0.714844"/><stop stop-opacity="1" stop-color="rgb(69.607544%, 34.976196%, 50.520325%)" offset="0.71875"/><stop stop-opacity="1" stop-color="rgb(70.005798%, 34.838867%, 50.126648%)" offset="0.722656"/><stop stop-opacity="1" stop-color="rgb(70.404053%, 34.701538%, 49.732971%)" offset="0.726562"/><stop stop-opacity="1" stop-color="rgb(70.802307%, 34.564209%, 49.339294%)" offset="0.730469"/><stop stop-opacity="1" stop-color="rgb(71.200562%, 34.428406%, 48.945618%)" offset="0.734375"/><stop stop-opacity="1" stop-color="rgb(71.59729%, 34.291077%, 48.551941%)" offset="0.738281"/><stop stop-opacity="1" stop-color="rgb(71.995544%, 34.153748%, 48.15979%)" offset="0.742188"/><stop stop-opacity="1" stop-color="rgb(72.393799%, 34.016418%, 47.766113%)" offset="0.746094"/><stop stop-opacity="1" stop-color="rgb(72.792053%, 33.879089%, 47.372437%)" offset="0.75"/><stop stop-opacity="1" stop-color="rgb(73.190308%, 33.74176%, 46.97876%)" offset="0.753906"/><stop stop-opacity="1" stop-color="rgb(73.588562%, 33.605957%, 46.585083%)" offset="0.757812"/><stop stop-opacity="1" stop-color="rgb(73.985291%, 33.468628%, 46.191406%)" offset="0.761719"/><stop stop-opacity="1" stop-color="rgb(74.383545%, 33.331299%, 45.797729%)" offset="0.765625"/><stop stop-opacity="1" stop-color="rgb(74.781799%, 33.19397%, 45.404053%)" offset="0.769531"/><stop stop-opacity="1" stop-color="rgb(75.180054%, 33.056641%, 45.010376%)" offset="0.773438"/><stop stop-opacity="1" stop-color="rgb(75.578308%, 32.919312%, 44.616699%)" offset="0.777344"/><stop stop-opacity="1" stop-color="rgb(75.976562%, 32.783508%, 44.224548%)" offset="0.78125"/><stop stop-opacity="1" stop-color="rgb(76.373291%, 32.646179%, 43.830872%)" offset="0.785156"/><stop stop-opacity="1" stop-color="rgb(76.771545%, 32.50885%, 43.437195%)" offset="0.789062"/><stop stop-opacity="1" stop-color="rgb(77.1698%, 32.371521%, 43.043518%)" offset="0.792969"/><stop stop-opacity="1" stop-color="rgb(77.568054%, 32.234192%, 42.649841%)" offset="0.796875"/><stop stop-opacity="1" stop-color="rgb(77.966309%, 32.096863%, 42.256165%)" offset="0.800781"/><stop stop-opacity="1" stop-color="rgb(78.364563%, 31.96106%, 41.862488%)" offset="0.804688"/><stop stop-opacity="1" stop-color="rgb(78.761292%, 31.82373%, 41.468811%)" offset="0.808594"/><stop stop-opacity="1" stop-color="rgb(79.159546%, 31.686401%, 41.075134%)" offset="0.8125"/><stop stop-opacity="1" stop-color="rgb(79.5578%, 31.549072%, 40.681458%)" offset="0.816406"/><stop stop-opacity="1" stop-color="rgb(79.956055%, 31.413269%, 40.287781%)" offset="0.820312"/><stop stop-opacity="1" stop-color="rgb(80.354309%, 31.27594%, 39.894104%)" offset="0.824219"/><stop stop-opacity="1" stop-color="rgb(80.752563%, 31.138611%, 39.501953%)" offset="0.828125"/><stop stop-opacity="1" stop-color="rgb(81.149292%, 31.001282%, 39.108276%)" offset="0.832031"/><stop stop-opacity="1" stop-color="rgb(81.547546%, 30.863953%, 38.7146%)" offset="0.835938"/><stop stop-opacity="1" stop-color="rgb(81.945801%, 30.726624%, 38.320923%)" offset="0.839844"/><stop stop-opacity="1" stop-color="rgb(82.344055%, 30.59082%, 37.927246%)" offset="0.84375"/><stop stop-opacity="1" stop-color="rgb(82.74231%, 30.453491%, 37.533569%)" offset="0.847656"/><stop stop-opacity="1" stop-color="rgb(83.140564%, 30.316162%, 37.139893%)" offset="0.851562"/><stop stop-opacity="1" stop-color="rgb(83.537292%, 30.178833%, 36.746216%)" offset="0.855469"/><stop stop-opacity="1" stop-color="rgb(83.935547%, 30.041504%, 36.352539%)" offset="0.859375"/><stop stop-opacity="1" stop-color="rgb(84.333801%, 29.904175%, 35.958862%)" offset="0.863281"/><stop stop-opacity="1" stop-color="rgb(84.732056%, 29.768372%, 35.566711%)" offset="0.867188"/><stop stop-opacity="1" stop-color="rgb(85.128784%, 29.631042%, 35.173035%)" offset="0.871094"/><stop stop-opacity="1" stop-color="rgb(85.527039%, 29.493713%, 34.779358%)" offset="0.875"/><stop stop-opacity="1" stop-color="rgb(85.925293%, 29.356384%, 34.385681%)" offset="0.878906"/><stop stop-opacity="1" stop-color="rgb(86.323547%, 29.219055%, 33.992004%)" offset="0.882812"/><stop stop-opacity="1" stop-color="rgb(86.721802%, 29.081726%, 33.598328%)" offset="0.886719"/><stop stop-opacity="1" stop-color="rgb(87.120056%, 28.945923%, 33.204651%)" offset="0.890625"/><stop stop-opacity="1" stop-color="rgb(87.516785%, 28.808594%, 32.810974%)" offset="0.894531"/><stop stop-opacity="1" stop-color="rgb(87.915039%, 28.671265%, 32.417297%)" offset="0.898438"/><stop stop-opacity="1" stop-color="rgb(88.313293%, 28.533936%, 32.023621%)" offset="0.902344"/><stop stop-opacity="1" stop-color="rgb(88.711548%, 28.396606%, 31.629944%)" offset="0.90625"/><stop stop-opacity="1" stop-color="rgb(89.109802%, 28.259277%, 31.236267%)" offset="0.910156"/><stop stop-opacity="1" stop-color="rgb(89.508057%, 28.123474%, 30.844116%)" offset="0.914063"/><stop stop-opacity="1" stop-color="rgb(89.904785%, 27.986145%, 30.450439%)" offset="0.917969"/><stop stop-opacity="1" stop-color="rgb(90.30304%, 27.848816%, 30.056763%)" offset="0.921875"/><stop stop-opacity="1" stop-color="rgb(90.701294%, 27.711487%, 29.663086%)" offset="0.925781"/><stop stop-opacity="1" stop-color="rgb(91.099548%, 27.574158%, 29.269409%)" offset="0.929688"/><stop stop-opacity="1" stop-color="rgb(91.497803%, 27.436829%, 28.875732%)" offset="0.933594"/><stop stop-opacity="1" stop-color="rgb(91.896057%, 27.301025%, 28.482056%)" offset="0.9375"/><stop stop-opacity="1" stop-color="rgb(92.292786%, 27.163696%, 28.088379%)" offset="0.941406"/><stop stop-opacity="1" stop-color="rgb(92.69104%, 27.026367%, 27.694702%)" offset="0.945313"/><stop stop-opacity="1" stop-color="rgb(93.089294%, 26.889038%, 27.301025%)" offset="0.949219"/><stop stop-opacity="1" stop-color="rgb(93.487549%, 26.751709%, 26.908875%)" offset="0.953125"/><stop stop-opacity="1" stop-color="rgb(93.608093%, 26.71051%, 26.78833%)" offset="0.96875"/><stop stop-opacity="1" stop-color="rgb(93.728638%, 26.669312%, 26.669312%)" offset="1"/></linearGradient><clipPath id="8361cbf5d4"><rect x="0" width="293" y="0" height="60"/></clipPath><clipPath id="101f4c37cf"><path d="M 0.949219 0 L 293 0 L 293 60 L 0.949219 60 Z M 0.949219 0 " clip-rule="nonzero"/></clipPath><clipPath id="1066811b19"><rect x="0" width="293" y="0" height="60"/></clipPath><clipPath id="c10a6580de"><rect x="0" width="293" y="0" height="60"/></clipPath><mask id="f8acb2cfe5"><g filter="url(#f97bf58c03)"><g transform="matrix(1, 0, 0, 1, 0.000000000000000888, -0.000000000000001479)"><g clip-path="url(#c10a6580de)"><g clip-path="url(#101f4c37cf)"><g transform="matrix(1, 0, 0, 1, 0.000000000000000888, -0.000000000000001479)"><g clip-path="url(#1066811b19)"><g fill="#000000" fill-opacity="1"><g transform="translate(77.50843, 42.028975)"><g><path d="M 8.859375 0 L 8.859375 -22.90625 L 1.03125 -22.90625 L 1.03125 -26.859375 L 21.640625 -26.859375 L 21.640625 -22.90625 L 13.78125 -22.90625 L 13.78125 0 Z M 8.859375 0 "/></g></g></g><g fill="#000000" fill-opacity="1"><g transform="translate(97.189224, 42.028975)"><g><path d="M 2.5 0 L 2.5 -19.03125 L 6.875 -19.03125 L 7.328125 -15.46875 C 8.015625 -16.695312 8.953125 -17.675781 10.140625 -18.40625 C 11.335938 -19.132812 12.742188 -19.5 14.359375 -19.5 L 14.359375 -14.3125 L 12.96875 -14.3125 C 11.894531 -14.3125 10.9375 -14.144531 10.09375 -13.8125 C 9.25 -13.476562 8.585938 -12.898438 8.109375 -12.078125 C 7.640625 -11.265625 7.40625 -10.128906 7.40625 -8.671875 L 7.40625 0 Z M 2.5 0 "/></g></g></g><g fill="#000000" fill-opacity="1"><g transform="translate(111.268903, 42.028975)"><g><path d="M 9.0625 0.453125 C 7.414062 0.453125 6.066406 0.191406 5.015625 -0.328125 C 3.972656 -0.847656 3.195312 -1.539062 2.6875 -2.40625 C 2.175781 -3.28125 1.921875 -4.242188 1.921875 -5.296875 C 1.921875 -7.054688 2.609375 -8.488281 3.984375 -9.59375 C 5.367188 -10.695312 7.441406 -11.25 10.203125 -11.25 L 15.046875 -11.25 L 15.046875 -11.703125 C 15.046875 -13.003906 14.671875 -13.960938 13.921875 -14.578125 C 13.179688 -15.191406 12.265625 -15.5 11.171875 -15.5 C 10.171875 -15.5 9.296875 -15.257812 8.546875 -14.78125 C 7.804688 -14.3125 7.347656 -13.617188 7.171875 -12.703125 L 2.375 -12.703125 C 2.507812 -14.085938 2.976562 -15.289062 3.78125 -16.3125 C 4.582031 -17.332031 5.625 -18.117188 6.90625 -18.671875 C 8.1875 -19.222656 9.617188 -19.5 11.203125 -19.5 C 13.910156 -19.5 16.046875 -18.816406 17.609375 -17.453125 C 19.171875 -16.097656 19.953125 -14.179688 19.953125 -11.703125 L 19.953125 0 L 15.765625 0 L 15.3125 -3.0625 C 14.75 -2.039062 13.960938 -1.195312 12.953125 -0.53125 C 11.941406 0.125 10.644531 0.453125 9.0625 0.453125 Z M 10.171875 -3.375 C 11.578125 -3.375 12.671875 -3.832031 13.453125 -4.75 C 14.234375 -5.675781 14.722656 -6.816406 14.921875 -8.171875 L 10.75 -8.171875 C 9.4375 -8.171875 8.5 -7.929688 7.9375 -7.453125 C 7.375 -6.984375 7.09375 -6.40625 7.09375 -5.71875 C 7.09375 -4.976562 7.375 -4.398438 7.9375 -3.984375 C 8.5 -3.578125 9.242188 -3.375 10.171875 -3.375 Z M 10.171875 -3.375 "/></g></g></g><g fill="#000000" fill-opacity="1"><g transform="translate(131.717137, 42.028975)"><g><path d="M 7.640625 0 L 0.65625 -19.03125 L 5.796875 -19.03125 L 10.625 -4.640625 L 15.46875 -19.03125 L 20.609375 -19.03125 L 13.578125 0 Z M 7.640625 0 "/></g></g></g><g fill="#000000" fill-opacity="1"><g transform="translate(150.899283, 42.028975)"><g><path d="M 11.75 0.453125 C 9.820312 0.453125 8.113281 0.046875 6.625 -0.765625 C 5.144531 -1.585938 3.984375 -2.738281 3.140625 -4.21875 C 2.296875 -5.707031 1.875 -7.421875 1.875 -9.359375 C 1.875 -11.328125 2.289062 -13.078125 3.125 -14.609375 C 3.957031 -16.148438 5.109375 -17.347656 6.578125 -18.203125 C 8.046875 -19.066406 9.78125 -19.5 11.78125 -19.5 C 13.644531 -19.5 15.289062 -19.085938 16.71875 -18.265625 C 18.15625 -17.441406 19.273438 -16.320312 20.078125 -14.90625 C 20.890625 -13.488281 21.296875 -11.910156 21.296875 -10.171875 C 21.296875 -9.890625 21.289062 -9.59375 21.28125 -9.28125 C 21.269531 -8.976562 21.25 -8.660156 21.21875 -8.328125 L 6.75 -8.328125 C 6.851562 -6.847656 7.367188 -5.679688 8.296875 -4.828125 C 9.234375 -3.984375 10.367188 -3.5625 11.703125 -3.5625 C 12.703125 -3.5625 13.539062 -3.785156 14.21875 -4.234375 C 14.894531 -4.679688 15.398438 -5.265625 15.734375 -5.984375 L 20.71875 -5.984375 C 20.363281 -4.785156 19.769531 -3.691406 18.9375 -2.703125 C 18.101562 -1.722656 17.078125 -0.953125 15.859375 -0.390625 C 14.648438 0.171875 13.28125 0.453125 11.75 0.453125 Z M 11.78125 -15.5 C 10.582031 -15.5 9.519531 -15.160156 8.59375 -14.484375 C 7.675781 -13.804688 7.085938 -12.773438 6.828125 -11.390625 L 16.3125 -11.390625 C 16.226562 -12.648438 15.765625 -13.648438 14.921875 -14.390625 C 14.078125 -15.128906 13.03125 -15.5 11.78125 -15.5 Z M 11.78125 -15.5 "/></g></g></g><g fill="#000000" fill-opacity="1"><g transform="translate(172.728707, 42.028975)"><g><path d="M 2.5 0 L 2.5 -27.625 L 7.40625 -27.625 L 7.40625 0 Z M 2.5 0 "/></g></g></g><g fill="#000000" fill-opacity="1"><g transform="translate(181.552362, 42.028975)"><g><path d="M 10.40625 0 L 0.578125 -26.859375 L 5.828125 -26.859375 L 13.4375 -5.03125 L 21.0625 -26.859375 L 26.25 -26.859375 L 16.421875 0 Z M 10.40625 0 "/></g></g></g><g fill="#000000" fill-opacity="1"><g transform="translate(204.954533, 42.028975)"><g><path d="M 11.625 0.453125 C 9.78125 0.453125 8.125 0.03125 6.65625 -0.8125 C 5.1875 -1.65625 4.019531 -2.820312 3.15625 -4.3125 C 2.300781 -5.8125 1.875 -7.546875 1.875 -9.515625 C 1.875 -11.484375 2.304688 -13.21875 3.171875 -14.71875 C 4.046875 -16.21875 5.21875 -17.390625 6.6875 -18.234375 C 8.164062 -19.078125 9.828125 -19.5 11.671875 -19.5 C 13.484375 -19.5 15.125 -19.078125 16.59375 -18.234375 C 18.0625 -17.390625 19.222656 -16.21875 20.078125 -14.71875 C 20.941406 -13.21875 21.375 -11.484375 21.375 -9.515625 C 21.375 -7.546875 20.941406 -5.8125 20.078125 -4.3125 C 19.222656 -2.820312 18.054688 -1.65625 16.578125 -0.8125 C 15.097656 0.03125 13.445312 0.453125 11.625 0.453125 Z M 11.625 -3.796875 C 12.90625 -3.796875 14.019531 -4.273438 14.96875 -5.234375 C 15.914062 -6.191406 16.390625 -7.617188 16.390625 -9.515625 C 16.390625 -11.410156 15.914062 -12.835938 14.96875 -13.796875 C 14.019531 -14.753906 12.921875 -15.234375 11.671875 -15.234375 C 10.359375 -15.234375 9.234375 -14.753906 8.296875 -13.796875 C 7.367188 -12.835938 6.90625 -11.410156 6.90625 -9.515625 C 6.90625 -7.617188 7.367188 -6.191406 8.296875 -5.234375 C 9.234375 -4.273438 10.34375 -3.796875 11.625 -3.796875 Z M 11.625 -3.796875 "/></g></g></g><g fill="#000000" fill-opacity="1"><g transform="translate(227.090882, 42.028975)"><g><path d="M 5.140625 -21.984375 C 4.242188 -21.984375 3.507812 -22.25 2.9375 -22.78125 C 2.363281 -23.320312 2.078125 -24.003906 2.078125 -24.828125 C 2.078125 -25.648438 2.363281 -26.320312 2.9375 -26.84375 C 3.507812 -27.363281 4.242188 -27.625 5.140625 -27.625 C 6.035156 -27.625 6.769531 -27.363281 7.34375 -26.84375 C 7.925781 -26.320312 8.21875 -25.648438 8.21875 -24.828125 C 8.21875 -24.003906 7.925781 -23.320312 7.34375 -22.78125 C 6.769531 -22.25 6.035156 -21.984375 5.140625 -21.984375 Z M 2.6875 0 L 2.6875 -19.03125 L 7.59375 -19.03125 L 7.59375 0 Z M 2.6875 0 "/></g></g></g><g fill="#000000" fill-opacity="1"><g transform="translate(236.221462, 42.028975)"><g><path d="M 11.8125 0.453125 C 9.875 0.453125 8.160156 0.03125 6.671875 -0.8125 C 5.191406 -1.65625 4.019531 -2.828125 3.15625 -4.328125 C 2.300781 -5.835938 1.875 -7.566406 1.875 -9.515625 C 1.875 -11.460938 2.300781 -13.191406 3.15625 -14.703125 C 4.019531 -16.210938 5.191406 -17.390625 6.671875 -18.234375 C 8.160156 -19.078125 9.875 -19.5 11.8125 -19.5 C 14.25 -19.5 16.296875 -18.863281 17.953125 -17.59375 C 19.617188 -16.332031 20.679688 -14.585938 21.140625 -12.359375 L 15.96875 -12.359375 C 15.707031 -13.273438 15.195312 -13.992188 14.4375 -14.515625 C 13.6875 -15.046875 12.800781 -15.3125 11.78125 -15.3125 C 10.425781 -15.3125 9.273438 -14.796875 8.328125 -13.765625 C 7.378906 -12.742188 6.90625 -11.328125 6.90625 -9.515625 C 6.90625 -7.703125 7.378906 -6.28125 8.328125 -5.25 C 9.273438 -4.226562 10.425781 -3.71875 11.78125 -3.71875 C 12.800781 -3.71875 13.6875 -3.972656 14.4375 -4.484375 C 15.195312 -4.992188 15.707031 -5.722656 15.96875 -6.671875 L 21.140625 -6.671875 C 20.679688 -4.523438 19.617188 -2.800781 17.953125 -1.5 C 16.296875 -0.195312 14.25 0.453125 11.8125 0.453125 Z M 11.8125 0.453125 "/></g></g></g><g fill="#000000" fill-opacity="1"><g transform="translate(258.12762, 42.028975)"><g><path d="M 11.75 0.453125 C 9.820312 0.453125 8.113281 0.046875 6.625 -0.765625 C 5.144531 -1.585938 3.984375 -2.738281 3.140625 -4.21875 C 2.296875 -5.707031 1.875 -7.421875 1.875 -9.359375 C 1.875 -11.328125 2.289062 -13.078125 3.125 -14.609375 C 3.957031 -16.148438 5.109375 -17.347656 6.578125 -18.203125 C 8.046875 -19.066406 9.78125 -19.5 11.78125 -19.5 C 13.644531 -19.5 15.289062 -19.085938 16.71875 -18.265625 C 18.15625 -17.441406 19.273438 -16.320312 20.078125 -14.90625 C 20.890625 -13.488281 21.296875 -11.910156 21.296875 -10.171875 C 21.296875 -9.890625 21.289062 -9.59375 21.28125 -9.28125 C 21.269531 -8.976562 21.25 -8.660156 21.21875 -8.328125 L 6.75 -8.328125 C 6.851562 -6.847656 7.367188 -5.679688 8.296875 -4.828125 C 9.234375 -3.984375 10.367188 -3.5625 11.703125 -3.5625 C 12.703125 -3.5625 13.539062 -3.785156 14.21875 -4.234375 C 14.894531 -4.679688 15.398438 -5.265625 15.734375 -5.984375 L 20.71875 -5.984375 C 20.363281 -4.785156 19.769531 -3.691406 18.9375 -2.703125 C 18.101562 -1.722656 17.078125 -0.953125 15.859375 -0.390625 C 14.648438 0.171875 13.28125 0.453125 11.75 0.453125 Z M 11.78125 -15.5 C 10.582031 -15.5 9.519531 -15.160156 8.59375 -14.484375 C 7.675781 -13.804688 7.085938 -12.773438 6.828125 -11.390625 L 16.3125 -11.390625 C 16.226562 -12.648438 15.765625 -13.648438 14.921875 -14.390625 C 14.078125 -15.128906 13.03125 -15.5 11.78125 -15.5 Z M 11.78125 -15.5 "/></g></g></g></g></g></g></g></g></g></mask><clipPath id="22a9e13492"><path d="M 0.953125 0 L 293 0 L 293 60 L 0.953125 60 Z M 0.953125 0 " clip-rule="nonzero"/></clipPath><clipPath id="38b0c16f1d"><rect x="0" width="293" y="0" height="60"/></clipPath><clipPath id="836e1e2a6d"><rect x="0" width="293" y="0" height="60"/></clipPath><clipPath id="ba8b3743d7"><rect x="0" width="293" y="0" height="60"/></clipPath><clipPath id="8babb3ab1e"><path d="M 8.6875 10.507812 L 79.1875 10.507812 L 79.1875 49.507812 L 8.6875 49.507812 Z M 8.6875 10.507812 " clip-rule="nonzero"/></clipPath></defs><g transform="matrix(1, 0, 0, 1, 7, -0.000000000000001479)"><g clip-path="url(#ba8b3743d7)"><g clip-path="url(#4a556ca27c)"><g transform="matrix(1, 0, 0, 1, 0.000000000000000888, -0.000000000000001479)"><g clip-path="url(#836e1e2a6d)"><g clip-path="url(#9bf07cd9ad)"><g mask="url(#f8acb2cfe5)"><g transform="matrix(1, 0, 0, 1, 0.000000000000000888, -0.000000000000001479)"><g clip-path="url(#38b0c16f1d)"><g clip-path="url(#22a9e13492)"><path fill="url(#6b71503964)" d="M 0.953125 0 L 0.953125 60 L 293 60 L 293 0 Z M 0.953125 0 " fill-rule="nonzero"/></g></g></g></g></g></g></g></g></g></g><g clip-path="url(#8babb3ab1e)"><path fill="#050505" d="M -149.210938 10.972656 L -149.210938 49.015625 C -149.210938 50.050781 -150.019531 50.855469 -151.0625 50.855469 C -152.101562 50.855469 -152.910156 50.050781 -152.910156 49.015625 L -152.910156 10.972656 C -152.910156 9.9375 -152.101562 9.132812 -151.0625 9.132812 C -150.019531 9.132812 -149.210938 9.9375 -149.210938 10.972656 Z M -143.78125 15.109375 C -144.824219 15.109375 -145.632812 15.683594 -145.632812 16.375 L -145.632812 43.382812 C -145.632812 44.074219 -144.824219 44.648438 -143.78125 44.648438 C -142.742188 44.648438 -141.933594 44.074219 -141.933594 43.382812 L -141.933594 16.375 C -141.933594 15.683594 -142.742188 15.109375 -143.78125 15.109375 Z M -135.695312 17.984375 C -136.734375 17.984375 -137.542969 18.445312 -137.542969 19.019531 L -137.542969 41.546875 C -137.542969 42.121094 -136.734375 42.578125 -135.695312 42.578125 C -134.65625 42.578125 -133.847656 42.121094 -133.847656 41.546875 L -133.847656 19.019531 C -133.847656 18.445312 -134.773438 17.984375 -135.695312 17.984375 Z M -127.839844 20.167969 C -128.878906 20.167969 -129.6875 20.511719 -129.6875 21.085938 L -129.6875 39.132812 C -129.6875 39.589844 -128.878906 40.050781 -127.839844 40.050781 C -126.800781 40.050781 -125.992188 39.707031 -125.992188 39.132812 L -125.992188 21.085938 C -125.992188 20.511719 -126.800781 20.167969 -127.839844 20.167969 Z M -120.214844 15.109375 C -121.253906 15.109375 -122.0625 15.683594 -122.0625 16.375 L -122.0625 44.074219 C -122.0625 44.761719 -121.253906 45.339844 -120.214844 45.339844 C -119.175781 45.339844 -118.367188 44.761719 -118.367188 44.074219 L -118.367188 16.488281 C -118.367188 15.683594 -119.175781 15.109375 -120.214844 15.109375 Z M -112.011719 13.730469 C -113.054688 13.730469 -113.863281 14.421875 -113.863281 15.226562 L -113.863281 45.453125 C -113.863281 46.257812 -113.054688 46.945312 -112.011719 46.945312 C -110.972656 46.945312 -110.164062 46.257812 -110.164062 45.453125 L -110.164062 15.109375 C -110.28125 14.304688 -111.089844 13.730469 -112.011719 13.730469 Z M -104.503906 10.859375 C -105.542969 10.859375 -106.351562 11.664062 -106.351562 12.582031 L -106.351562 47.75 C -106.351562 48.671875 -105.542969 49.476562 -104.503906 49.476562 C -103.464844 49.476562 -102.65625 48.671875 -102.65625 47.75 L -102.65625 12.46875 C -102.65625 11.546875 -103.464844 10.859375 -104.503906 10.859375 Z M -65.109375 10.398438 C -66.152344 10.398438 -66.960938 11.203125 -66.960938 12.121094 L -66.960938 47.40625 C -66.960938 48.328125 -66.152344 49.128906 -65.109375 49.128906 C -64.070312 49.128906 -63.261719 48.328125 -63.261719 47.40625 L -63.261719 12.121094 C -63.261719 11.085938 -64.1875 10.398438 -65.109375 10.398438 Z M -57.253906 10.398438 C -58.296875 10.398438 -59.105469 11.203125 -59.105469 12.121094 L -59.105469 47.40625 C -59.105469 48.328125 -58.296875 49.128906 -57.253906 49.128906 C -56.214844 49.128906 -55.40625 48.328125 -55.40625 47.40625 L -55.40625 12.121094 C -55.40625 11.085938 -56.214844 10.398438 -57.253906 10.398438 Z M -49.398438 17.640625 C -50.4375 17.640625 -51.25 18.097656 -51.25 18.789062 L -51.25 41.773438 C -51.25 42.351562 -50.4375 42.925781 -49.398438 42.925781 C -48.359375 42.925781 -47.550781 42.464844 -47.550781 41.773438 L -47.550781 18.789062 C -47.550781 18.097656 -48.359375 17.640625 -49.398438 17.640625 Z M -33.457031 20.628906 C -34.496094 20.628906 -35.304688 20.972656 -35.304688 21.433594 L -35.304688 39.246094 C -35.304688 39.707031 -34.496094 40.050781 -33.457031 40.050781 C -32.417969 40.050781 -31.609375 39.707031 -31.609375 39.246094 L -31.609375 21.546875 C -31.609375 21.085938 -32.417969 20.628906 -33.457031 20.628906 Z M -25.601562 24.535156 C -26.640625 24.535156 -27.449219 24.765625 -27.449219 24.996094 L -27.449219 35.109375 C -27.449219 35.339844 -26.640625 35.570312 -25.601562 35.570312 C -24.5625 35.570312 -23.753906 35.339844 -23.753906 35.109375 L -23.753906 24.878906 C -23.753906 24.765625 -24.5625 24.535156 -25.601562 24.535156 Z M -17.863281 24.535156 C -18.902344 24.535156 -19.710938 24.765625 -19.710938 24.996094 L -19.710938 35.109375 C -19.710938 35.339844 -18.902344 35.570312 -17.863281 35.570312 C -16.820312 35.570312 -16.011719 35.339844 -16.011719 35.109375 L -16.011719 24.878906 C -16.011719 24.765625 -16.820312 24.535156 -17.863281 24.535156 Z M -10.238281 14.652344 C -11.277344 14.652344 -12.085938 15.226562 -12.085938 16.03125 L -12.085938 44.1875 C -12.085938 44.878906 -11.277344 45.566406 -10.238281 45.566406 C -9.199219 45.566406 -8.390625 44.992188 -8.390625 44.1875 L -8.390625 16.03125 C -8.390625 15.226562 -9.199219 14.652344 -10.238281 14.652344 Z M -2.265625 16.488281 C -3.304688 16.488281 -4.113281 17.0625 -4.113281 17.640625 L -4.113281 42.578125 C -4.113281 43.269531 -3.304688 43.730469 -2.265625 43.730469 C -1.226562 43.730469 -0.417969 43.152344 -0.417969 42.578125 L -0.417969 17.640625 C -0.417969 17.0625 -1.226562 16.488281 -2.265625 16.488281 Z M 5.820312 19.363281 C 4.78125 19.363281 3.972656 19.824219 3.972656 20.28125 L 3.972656 40.050781 C 3.972656 40.625 4.78125 40.96875 5.820312 40.96875 C 6.859375 40.96875 7.667969 40.511719 7.667969 40.050781 L 7.667969 20.28125 C 7.667969 19.707031 6.859375 19.363281 5.820312 19.363281 Z M 13.445312 23.5 C 12.40625 23.5 11.597656 23.730469 11.597656 24.074219 L 11.597656 35.796875 C 11.597656 36.144531 12.40625 36.375 13.445312 36.375 C 14.484375 36.375 15.292969 36.144531 15.292969 35.796875 L 15.292969 24.074219 C 15.292969 23.730469 14.371094 23.5 13.445312 23.5 Z M 68.433594 21.203125 C 67.394531 21.203125 66.585938 21.546875 66.585938 22.007812 L 66.585938 38.902344 C 66.585938 39.363281 67.394531 39.707031 68.433594 39.707031 C 69.472656 39.707031 70.28125 39.363281 70.28125 38.902344 L 70.28125 22.007812 C 70.28125 21.546875 69.472656 21.203125 68.433594 21.203125 Z M 76.289062 25.109375 C 75.25 25.109375 74.441406 25.339844 74.441406 25.570312 L 74.441406 33.960938 C 74.441406 34.1875 75.25 34.417969 76.289062 34.417969 C 77.328125 34.417969 78.140625 34.1875 78.140625 33.960938 L 78.140625 25.570312 C 78.140625 25.226562 77.328125 25.109375 76.289062 25.109375 Z M 84.492188 27.179688 C 83.453125 27.179688 82.644531 27.292969 82.644531 27.410156 L 82.644531 32.808594 C 82.644531 32.925781 83.453125 33.039062 84.492188 33.039062 C 85.53125 33.039062 86.339844 32.925781 86.339844 32.808594 L 86.339844 27.410156 C 86.339844 27.292969 85.53125 27.179688 84.492188 27.179688 Z M 36.898438 17.867188 C 35.855469 17.867188 35.046875 18.328125 35.046875 18.902344 L 35.046875 41.199219 C 35.046875 41.773438 35.855469 42.234375 36.898438 42.234375 C 37.9375 42.234375 38.746094 41.773438 38.746094 41.199219 L 38.746094 19.019531 C 38.746094 18.445312 37.9375 17.867188 36.898438 17.867188 Z M 21.417969 13.847656 C 20.375 13.847656 19.566406 14.421875 19.566406 15.226562 L 19.566406 44.074219 C 19.566406 44.878906 20.375 45.453125 21.417969 45.453125 C 22.457031 45.453125 23.265625 44.878906 23.265625 44.074219 L 23.265625 15.226562 C 23.265625 14.535156 22.339844 13.847656 21.417969 13.847656 Z M 45.214844 13.847656 C 44.175781 13.847656 43.367188 14.421875 43.367188 15.226562 L 43.367188 44.074219 C 43.367188 44.878906 44.175781 45.453125 45.214844 45.453125 C 46.253906 45.453125 47.0625 44.878906 47.0625 44.074219 L 47.0625 15.226562 C 46.945312 14.535156 46.136719 13.847656 45.214844 13.847656 Z M 52.722656 13.847656 C 51.683594 13.847656 50.875 14.421875 50.875 15.226562 L 50.875 44.074219 C 50.875 44.878906 51.683594 45.453125 52.722656 45.453125 C 53.761719 45.453125 54.570312 44.878906 54.570312 44.074219 L 54.570312 15.226562 C 54.570312 14.535156 53.761719 13.847656 52.722656 13.847656 Z M 60.808594 13.847656 C 59.769531 13.847656 58.960938 14.421875 58.960938 15.226562 L 58.960938 44.074219 C 58.960938 44.878906 59.769531 45.453125 60.808594 45.453125 C 61.851562 45.453125 62.660156 44.878906 62.660156 44.074219 L 62.660156 15.226562 C 62.660156 14.535156 61.851562 13.847656 60.808594 13.847656 Z M 29.273438 12.695312 C 28.230469 12.695312 27.421875 13.386719 27.421875 14.191406 L 27.421875 46.371094 C 27.421875 47.175781 28.230469 47.867188 29.273438 47.867188 C 30.3125 47.867188 31.121094 47.175781 31.121094 46.371094 L 31.121094 14.191406 C 31.003906 13.386719 30.195312 12.695312 29.273438 12.695312 Z M -41.542969 12.238281 C -42.582031 12.238281 -43.390625 12.925781 -43.390625 13.847656 L -43.390625 47.0625 C -43.390625 47.980469 -42.582031 48.671875 -41.542969 48.671875 C -40.503906 48.671875 -39.695312 47.980469 -39.695312 47.0625 L -39.695312 13.847656 C -39.695312 12.925781 -40.503906 12.238281 -41.542969 12.238281 Z M -96.535156 7.984375 C -97.574219 7.984375 -98.382812 8.902344 -98.382812 9.9375 L -98.382812 50.394531 C -98.382812 51.429688 -97.574219 52.347656 -96.535156 52.347656 C -95.492188 52.347656 -94.683594 51.429688 -94.683594 50.394531 L -94.683594 9.9375 C -94.683594 8.902344 -95.492188 7.984375 -96.535156 7.984375 Z M -88.5625 7.523438 C -89.601562 7.523438 -90.410156 8.445312 -90.410156 9.480469 L -90.410156 49.933594 C -90.410156 50.96875 -89.601562 51.890625 -88.5625 51.890625 C -87.523438 51.890625 -86.714844 50.96875 -86.714844 49.933594 L -86.714844 9.480469 C -86.828125 8.445312 -87.636719 7.523438 -88.5625 7.523438 Z M -80.820312 7.523438 C -81.863281 7.523438 -82.671875 8.445312 -82.671875 9.480469 L -82.671875 49.933594 C -82.671875 50.96875 -81.863281 51.890625 -80.820312 51.890625 C -79.78125 51.890625 -78.972656 50.96875 -78.972656 49.933594 L -78.972656 9.480469 C -79.089844 8.445312 -79.898438 7.523438 -80.820312 7.523438 Z M -73.082031 7.523438 C -74.121094 7.523438 -74.929688 8.445312 -74.929688 9.480469 L -74.929688 49.933594 C -74.929688 50.96875 -74.121094 51.890625 -73.082031 51.890625 C -72.042969 51.890625 -71.234375 50.96875 -71.234375 49.933594 L -71.234375 9.480469 C -71.234375 8.445312 -72.042969 7.523438 -73.082031 7.523438 Z M -73.082031 7.523438 " fill-opacity="1" fill-rule="nonzero"/></g></svg>